<?xml version="1.0" standalone="no"?><!DOCTYPE svg PUBLIC "-//W3C//DTD SVG 1.1//EN" "http://www.w3.org/Graphics/SVG/1.1/DTD/svg11.dtd"><svg t="1723692066015" class="icon" viewBox="0 0 1024 1024" version="1.1" xmlns="http://www.w3.org/2000/svg" p-id="2282" xmlns:xlink="http://www.w3.org/1999/xlink" width="200" height="200"><path d="M261.79887172 1284.07226794c0-0.41106427 0.13702141-0.82212858 0.27404284-1.23319286 0-0.95914999 0-1.91830003 0.13702145-2.87744996 2.19234288-20.96427856 4.93277142-41.24344994 8.2212857-60.70049279-6.3029857-0.27404284-12.88001428-1.09617142-19.45704284-3.01447149-3.83660001-1.09617142-7.39915717-2.46638573-10.82469284-4.24766424l-60.56347136 95.0928713c12.46894999-1.91830003 26.58215711-3.28851427 41.38047138-3.42553565h11.3727786c0.95914999 0 2.05532142 0 3.01447142 0.13702139 0.82212858 0 1.64425714 0.13702141 2.46638567 0.13702146 0.82212858 0 1.50723572 0.13702141 2.32936429 0.13702141 0.95914999 0 1.91830003 0.13702141 2.87745001 0.13702139 0.41106427 0 0.82212858 0 1.23319285 0.13702149 5.48085713 0.41106427 10.96171428 1.09617142 16.16852855 1.78127856 0.13702141-12.33192853 1.23319285-20.82725709 1.37021428-22.06045001zM775.7662497 1216.24666084c-6.57702857 1.91830003-13.29107856 2.74042856-19.45704284 3.01447149 3.28851427 19.59406425 6.02894283 39.73621422 8.22128572 60.70049279 0.13702141 1.50723572 0.13702141 2.87744998 0 4.24766429 0.27404284 1.64425714 1.23319285 10.00256427 1.5072357 22.06044995 1.23319285-0.13702141 2.46638573-0.41106427 3.69957855-0.54808569 0.41106427 0 0.82212858-0.13702141 1.23319285-0.13702146 1.09617142-0.13702141 2.3293643-0.27404284 3.4255357-0.41106429 0.54808572 0 1.09617142-0.13702141 1.64425715-0.13702142 1.09617142-0.13702141 2.05532142-0.27404284 3.1514929-0.27404287 0.68510715 0 1.3702143-0.13702141 2.05532141-0.13702143 0.95914999-0.13702141 2.05532142-0.13702141 3.01447139-0.27404281 0.82212858 0 1.64425714-0.13702141 2.46638574-0.13702149 0.95914999 0 1.78127857-0.13702141 2.74042857-0.13702139s1.91830003-0.13702141 2.74042856-0.13702141c0.82212858 0 1.64425714 0 2.46638571-0.13702146h11.0987357c14.79831426 0.27404284 28.91152141 1.64425714 41.38047138 3.42553573l-60.56347134-95.0928713c-3.42553572 1.50723572-6.98809285 3.01447142-10.82469285 4.11064277z" fill="#ED1C24" p-id="2283"></path><path d="M870.72209958 535.11314028c-68.51071421-70.01794992-221.8376926-97.55925702-221.83769259-97.55925703s-191.55595693-26.58215711-249.3789997 31.51492854c-48.36856422 48.50558563 29.18556425 52.61622852 29.18556421 52.61622848-64.53709279 35.62557138-123.86737127-12.74299285-90.70818558-40.69536425 39.0511071-32.8851428 4.11064289-41.10642855 4.11064285-41.10642849-59.60432137-9.5915-127.56694986 54.26048566-168.81039979 101.53287842V788.46576139c0 104.95841417 85.50137132 190.45978548 190.45978548 190.45978546h316.51949963c104.95841417 0 190.45978548-85.50137132 190.45978549-190.45978546V535.11314028zM323.18447164 757.2248757c-22.74555713 0-44.2579214-8.90639284-60.28942848-24.93789998-30.00769282-30.00769282-32.8851428-76.86902134-8.90639287-110.16522841l119.07162127 119.07162129c-14.38724998 10.41362856-31.65194995 16.03150712-49.87579992 16.0315071zM763.708364 732.28697572c-16.16852856 16.16852856-37.54387139 24.93789998-60.28942849 24.93789998-18.08682854 0-35.48854995-5.61787856-49.87579994-16.0315071l119.07162126-119.07162129c10.41362856 14.38724998 16.03150712 31.65194995 16.0315071 49.87579993 0 22.74555713-8.90639284 44.12089995-24.93789993 60.28942848z" fill="#FFECD9" p-id="2284"></path><path d="M911.82852809 788.32873996v-306.92799964c0-61.65964276-24.1157714-119.75672841-67.96262851-163.60358547s-101.94394277-67.9626285-163.60358549-67.96262854h-316.51949963c-61.65964276 0-119.75672841 24.1157714-163.6035855 67.96262854s-67.9626285 101.94394277-67.9626285 163.60358547v306.92799964c0 61.65964276 24.1157714 119.75672841 67.9626285 163.60358553 30.14471424 30.14471424 67.14049992 50.97197137 107.28777843 61.11155707-11.09873569 9.04341426-23.70470712 19.73108567-35.89961424 31.37790712-53.16431423 50.42388565-74.26561419 91.53031416-64.81113563 125.92269269 1.09617142 3.83660001 2.46638573 7.53617854 3.97362142 11.0987357L118.20041474 1326.95997504c-4.65872857 7.26213571-4.24766428 16.71661429 1.09617144 23.56768569 5.34383569 6.85107142 14.38724998 9.5915 22.60853568 6.98809286 0.95914999-0.27404284 65.35922134-20.82725709 120.57885703-9.1804357 5.20681429 37.95493567 21.2383214 81.25370705 65.22219991 96.60010701 14.52427143 5.06979285 28.50045712 7.53617854 41.92855707 7.53617859 15.20937854 0 29.73364997-3.28851427 43.29877141-9.86554288 19.59406425-9.45447856 33.57024997-24.38981425 43.02472851-37.81791424h114.27587126c9.45447856 13.42809997 23.43066424 28.36343568 43.02472856 37.81791424 13.5651214 6.57702857 27.95237139 9.86554284 43.29877133 9.86554288 13.42809997 0 27.40428566-2.46638573 41.92855711-7.53617859 43.9838785-15.34639999 60.01538565-58.64517136 65.22219995-96.4630856 55.21963565-11.92086428 120.0307713 8.7693714 120.85289988 9.04341429 8.22128571 2.74042856 17.26469999 0 22.60853566-6.85107144s5.75490002-16.30555 1.09617144-23.70470711l-92.62648564-145.51675697c1.64425714-3.42553572 2.87744998-7.12511428 3.97362144-11.0987357 9.5915-34.39237855-11.64682139-75.63582849-64.81113566-125.92269269-10.96171428-10.41362856-22.06044997-20.00512857-32.33705709-28.36343569 45.49111423-8.49532857 87.4196713-30.41875713 120.98992127-64.1260285 44.2579214-43.84685708 68.37369278-101.94394277 68.37369279-163.60358553zM242.88991463 1304.2144179c-0.95914999-0.13702141-1.91830003-0.13702141-2.87745003-0.13702139-0.68510715 0-1.50723572-0.13702141-2.32936429-0.13702141-0.82212858 0-1.64425714-0.13702141-2.46638572-0.13702146-0.95914999 0-2.05532142-0.13702141-3.01447142-0.13702139H220.82946463c-14.79831426 0.27404284-28.91152141 1.64425714-41.38047136 3.42553565l60.56347133-95.0928713c3.42553572 1.64425714 6.98809285 3.15149289 10.82469285 4.24766424 6.57702857 1.91830003 13.29107856 2.74042856 19.45704282 3.01447149-3.28851427 19.59406425-6.02894283 39.73621422-8.22128571 60.70049279-0.13702141 0.95914999-0.13702141 1.91830003-0.13702141 2.87744996-0.13702141 0.41106427-0.13702141 0.82212858-0.27404285 1.23319286-0.13702141 1.3702143-1.23319285 9.72852142-1.50723572 22.19747142-5.20681429-0.82212858-10.68767142-1.3702143-16.16852856-1.78127856-0.27404284-0.13702141-0.68510715-0.27404284-1.09617139-0.2740429z m152.09378551 101.53287847c-15.48342142 7.53617854-33.02216421 7.67319998-53.71239994 0.41106432-32.47407851-11.37277857-39.18812852-56.86389281-39.73621423-87.55669277l123.73034984 58.3711285c-6.16596429 9.86554284-16.16852856 21.92342853-30.28173567 28.77449995z m118.38651416-43.57281419c-36.17365709 0-118.24949273-36.99578566-176.75764268-66.45539281h352.83017818c-24.52683569 12.33192853-53.16431423 26.03407141-80.84264275 37.81791425l-0.82212859 0.41106428c-3.56255715 1.50723572-7.26213571 3.01447142-10.82469284 4.52170716-0.41106427 0.13702141-0.68510715 0.27404284-1.09617144 0.41106425l-6.16596429 2.46638573-0.82212855 0.41106429c-1.09617142 0.41106427-2.19234288 0.82212858-3.28851427 1.37021426-0.41106427 0.13702141-0.82212858 0.27404284-1.09617146 0.41106429-1.91830003 0.68510715-3.83660001 1.50723572-5.61787857 2.19234287-0.41106427 0.13702141-0.95914999 0.41106427-1.37021429 0.54808569-3.28851427 1.23319285-6.44000711 2.3293643-9.59149995 3.4255357-0.54808572 0.13702141-0.95914999 0.41106427-1.50723571 0.54808574-1.78127857 0.54808572-3.42553572 1.23319285-5.20681426 1.78127854-0.41106427 0.13702141-0.68510715 0.27404284-1.09617145 0.41106431-0.95914999 0.27404284-1.91830003 0.68510715-2.87745003 0.95915-0.54808572 0.13702141-0.95914999 0.27404284-1.37021427 0.41106431-1.50723572 0.54808572-3.15149289 0.95914999-4.65872856 1.37021426-0.41106427 0.13702141-0.95914999 0.27404284-1.37021427 0.41106427-0.95914999 0.27404284-1.78127857 0.54808572-2.7404286 0.82212858-0.41106427 0.13702141-0.82212858 0.27404284-1.23319286 0.27404288-1.50723572 0.41106427-3.01447142 0.82212858-4.38468569 1.23319284-0.41106427 0.13702141-0.95914999 0.27404284-1.37021428 0.41106427-1.50723572 0.41106427-3.01447142 0.68510715-4.52170711 1.09617145-0.27404284 0-0.54808572 0.13702141-0.95915 0.27404285-0.82212858 0.13702141-1.50723572 0.27404284-2.32936433 0.54808571-0.41106427 0.13702141-0.82212858 0.13702141-1.37021424 0.27404287-1.23319285 0.27404284-2.46638573 0.41106427-3.6995786 0.68510712-0.41106427 0.13702141-0.82212858 0.13702141-1.23319285 0.27404286-0.68510715 0.13702141-1.3702143 0.27404284-2.05532141 0.27404289-0.41106427 0-0.82212858 0.13702141-1.23319286 0.13702139-1.09617142 0.13702141-2.19234288 0.27404284-3.15149288 0.41106429-0.41106427 0-0.82212858 0.13702141-1.23319284 0.13702146-0.54808572 0-1.23319285 0.13702141-1.78127855 0.13702139-0.82212858 0-1.50723572 0-2.19234285 0.13702143-0.54808572-0.54808572-0.68510715-0.54808572-0.95915-0.54808567z m171.68784977 43.98387851c-28.36343568 9.86554284-51.38303565 5.8919214-70.15497134-12.05788572-5.75490002-5.48085713-10.41362856-11.64682139-13.83916428-17.12767855l123.73034991-58.3711285c-0.68510715 30.69279996-7.26213571 76.1839142-39.73621429 87.55669277z m120.71587844-102.49202844h-11.0987357c-0.82212858 0-1.64425714 0-2.46638571 0.13702139-0.95914999 0-1.91830003 0-2.74042856 0.13702146-0.95914999 0-1.91830003 0.13702141-2.74042857 0.13702141-0.82212858 0-1.64425714 0.13702141-2.46638574 0.13702139-0.95914999 0.13702141-2.05532142 0.13702141-3.01447139 0.2740429-0.68510715 0-1.3702143 0.13702141-2.05532141 0.1370214-1.09617142 0.13702141-2.19234288 0.13702141-3.1514929 0.27404286-0.54808572 0-1.09617142 0.13702141-1.64425715 0.13702144-1.09617142 0.13702141-2.3293643 0.27404284-3.4255357 0.41106424-0.41106427 0-0.82212858 0.13702141-1.23319285 0.13702147-1.23319285 0.13702141-2.46638573 0.41106427-3.69957855 0.54808574-0.27404284-12.05788571-1.3702143-20.41619283-1.5072357-22.06045001 0.13702141-1.3702143 0.13702141-2.87744998 0-4.24766425-2.19234288-20.96427856-4.93277142-41.10642855-8.22128572-60.7004928 6.3029857-0.27404284 12.88001428-1.09617142 19.45704284-3.01447145 3.83660001-1.09617142 7.39915717-2.46638573 10.82469285-4.24766425l60.56347134 95.09287131c-12.46894999-1.64425714-26.58215711-3.01447142-41.38047138-3.28851425z m-78.92434275-229.51089265c38.22897854 36.17365709 58.23410705 68.09964994 53.43835707 85.09030709-4.79574999 17.12767857-19.32002142 19.86810711-32.06301426 18.63491425-4.11064289-18.49789282-8.90639284-36.17365709-14.11320715-53.0272928-3.42553572-10.82469285-14.93533569-16.85363568-25.76002851-13.4281s-16.85363568 14.93533569-13.42809998 25.76002858c12.19490712 38.91408567 21.2383214 82.89796418 26.99322139 130.99248554H304.82360025c5.75490002-48.09452138 14.79831426-92.07839988 26.9932214-130.99248554 3.42553572-10.82469285-2.60340715-22.33449282-13.42809998-25.76002858s-22.33449282 2.60340715-25.76002854 13.4281c-5.20681429 16.85363568-10.00256427 34.52939994-14.11320714 53.0272928-12.60597141 1.23319285-27.26726428-1.50723572-32.06301425-18.63491425-4.65872857-16.99065711 15.07235709-48.77962855 53.16431422-84.8162642 26.03407141-24.66385711 53.71239993-45.21707135 64.81113562-53.16431421h297.88458539c11.09873569 7.94724285 38.50302138 28.36343568 64.53709279 52.89027132z m-46.58728567-95.36691414h-316.51949963c-104.95841417 0-190.45978548-85.50137132-190.45978548-190.4597855V541.27910453c41.24344994-47.27239279 109.06905701-111.12437843 168.81039979-101.53287847 0 0 34.94046425 8.22128571-4.11064285 41.10642855-33.29620714 27.95237139 26.17109286 76.32093563 90.70818558 40.69536424 0 0-77.55412847-4.11064289-29.18556421-52.61622849 57.82304278-57.96006422 249.37899973-31.51492857 249.3789997-31.51492854s153.32697839 27.5413071 221.83769259 97.55925702v253.21559972c0 105.23245703-85.50137132 190.59680691-190.45978549 190.5968069z" fill="" p-id="2285"></path><path d="M662.31250697 1021.26516828H364.2909002c-11.09873569 7.94724285-38.77706424 28.50045712-64.81113567 53.16431421-37.95493567 36.0366357-57.82304278 67.82560704-53.16431423 84.8162642 4.79574999 17.12767857 19.32002142 19.86810711 32.06301426 18.63491425 4.11064289-18.49789282 8.7693714-36.17365709 14.11320712-53.0272928 3.42553572-10.82469285 14.93533569-16.85363568 25.76002854-13.4281s16.85363568 14.93533569 13.42809998 25.76002858c-12.19490712 38.91408567-21.2383214 82.89796418-26.99322139 130.99248554h417.0932281c-5.75490002-48.09452138-14.79831426-92.07839988-26.99322139-130.99248554-3.42553572-10.82469285 2.60340715-22.33449282 13.42809996-25.76002858s22.33449282 2.60340715 25.76002855 13.4281c5.20681429 16.85363568 10.00256427 34.52939994 14.11320713 53.0272928 12.60597141 1.23319285 27.26726428-1.50723572 32.06301425-18.63491425s-15.20937854-48.91664998-53.43835712-85.09030709c-25.89704995-24.52683569-53.30133563-44.94302852-64.40007132-52.89027132z m-72.7583785 89.61201416l-71.38816418 67.14049997c-1.3702143 1.23319285-3.01447142 1.91830003-4.65872857 1.91829994s-3.42553572-0.68510715-4.65872861-1.91829994l-71.38816416-67.14049997c-2.3293643-2.19234288-2.87744998-5.61787856-1.23319288-8.49532856l18.90895712-32.47407853c1.23319285-2.05532142 3.42553572-3.42553572 5.89192144-3.42553572h105.09543561c2.46638573 0 4.65872857 1.23319285 5.89192141 3.42553572l18.9089571 32.47407853c1.3702143 2.87744998 0.95914999 6.3029857-1.37021428 8.49532856zM523.78384284 1361.35235358c-0.41106427 0-0.82212858 0.13702141-1.23319285 0.13702142 0.27404284-0.13702141 0.68510715-0.13702141 1.23319285-0.13702142zM516.24766428 1362.0374607c-0.82212858 0-1.50723572 0-2.19234286 0.13702148 0.68510715-0.13702141 1.50723572-0.13702141 2.19234286-0.13702148zM546.80344282 1356.14553933c-0.41106427 0.13702141-0.82212858 0.27404284-1.23319285 0.27404282 0.41106427 0 0.82212858-0.13702141 1.23319285-0.27404282zM550.91408567 1355.04936789c-0.41106427 0.13702141-0.95914999 0.27404284-1.37021428 0.41106426 0.41106427-0.13702141 0.82212858-0.27404284 1.37021428-0.41106426zM519.26213571 1361.76341789c-0.41106427 0-0.82212858 0.13702141-1.23319288 0.13702139 0.41106427 0 0.82212858 0 1.23319288-0.13702139zM532.00512857 1359.84511787c-0.41106427 0.13702141-0.82212858 0.13702141-1.37021431 0.27404286 0.54808572-0.13702141 0.95914999-0.13702141 1.37021431-0.27404286zM589.55412847 1341.34722504l-0.82212857 0.41106429c0.27404284-0.27404284 0.54808572-0.27404284 0.82212857-0.41106429zM608.60010705 1333.53700362l-0.82212859 0.41106428 0.82212859-0.41106428zM596.95328562 1338.3327536c-0.41106427 0.13702141-0.68510715 0.27404284-1.09617144 0.41106431 0.41106427-0.13702141 0.68510715-0.27404284 1.09617144-0.41106431zM527.07235709 1360.80426786c-0.41106427 0.13702141-0.82212858 0.13702141-1.23319282 0.27404285 0.41106427-0.13702141 0.82212858-0.27404284 1.23319282-0.27404285zM541.18556425 1357.78979643c-0.41106427 0.13702141-0.95914999 0.27404284-1.37021427 0.41106429 0.41106427-0.27404284 0.82212858-0.41106427 1.37021427-0.41106429zM560.91664998 1351.76085359c-0.41106427 0.13702141-0.68510715 0.27404284-1.09617151 0.4110643 0.27404284-0.13702141 0.68510715-0.27404284 1.09617151-0.4110643zM567.63069991 1349.56851074c-0.54808572 0.13702141-0.95914999 0.41106427-1.50723567 0.54808569 0.41106427-0.27404284 0.95914999-0.41106427 1.50723567-0.54808569zM578.59241418 1345.59488933c-0.41106427 0.13702141-0.95914999 0.41106427-1.37021425 0.54808569 0.41106427-0.27404284 0.95914999-0.41106427 1.37021425-0.54808569zM535.29364283 1359.16001074c-0.27404284 0-0.54808572 0.13702141-0.95915001 0.27404285 0.27404284-0.13702141 0.68510715-0.27404284 0.95915001-0.27404285zM585.44348562 1342.99148218c-0.41106427 0.13702141-0.82212858 0.27404284-1.09617137 0.41106428 0.27404284-0.13702141 0.68510715-0.27404284 1.09617137-0.41106428zM556.94302852 1353.13106786c-0.54808572 0.13702141-0.95914999 0.27404284-1.37021431 0.4110643 0.41106427-0.13702141 0.82212858-0.27404284 1.37021431-0.4110643z" fill="#00A0EA" p-id="2286"></path><path d="M516.24766428 1362.0374607c0.54808572 0 1.23319285-0.13702141 1.78127855-0.13702142 0.41106427 0 0.82212858 0 1.23319288-0.13702139 1.09617142-0.13702141 2.05532142-0.27404284 3.15149285-0.41106431 0.41106427 0 0.82212858-0.13702141 1.23319283-0.13702144 0.68510715-0.13702141 1.3702143-0.13702141 2.05532145-0.27404282 0.41106427 0 0.82212858-0.13702141 1.23319285-0.27404291 1.23319285-0.13702141 2.46638573-0.41106427 3.69957857-0.68510714 0.41106427-0.13702141 0.82212858-0.13702141 1.37021431-0.27404283 0.82212858-0.13702141 1.50723572-0.27404284 2.32936425-0.5480857 0.27404284 0 0.54808572-0.13702141 0.95915001-0.27404285 1.50723572-0.27404284 3.01447142-0.68510715 4.52170715-1.09617146 0.41106427-0.13702141 0.95914999-0.27404284 1.37021427-0.41106428 1.50723572-0.41106427 2.87744998-0.82212858 4.38468572-1.23319282 0.41106427-0.13702141 0.82212858-0.27404284 1.23319285-0.27404287 0.82212858-0.27404284 1.78127857-0.54808572 2.74042857-0.82212857 0.41106427-0.13702141 0.95914999-0.27404284 1.37021428-0.4110643 1.50723572-0.41106427 3.01447142-0.95914999 4.65872854-1.37021429 0.41106427-0.13702141 0.95914999-0.27404284 1.37021431-0.41106429 0.95914999-0.27404284 1.91830003-0.54808572 2.87744995-0.95915001 0.41106427-0.13702141 0.68510715-0.27404284 1.09617151-0.41106427 1.78127857-0.54808572 3.42553572-1.09617142 5.20681426-1.78127859 0.54808572-0.13702141 0.95914999-0.41106427 1.50723567-0.54808568 3.15149289-1.09617142 6.3029857-2.3293643 9.59150002-3.42553571 0.41106427-0.13702141 0.95914999-0.41106427 1.37021425-0.54808574 1.91830003-0.68510715 3.69957852-1.3702143 5.61787858-2.19234283 0.41106427-0.13702141 0.82212858-0.27404284 1.09617145-0.41106434 1.09617142-0.41106427 2.19234288-0.82212858 3.28851428-1.37021423l0.82212857-0.4110643 6.16596425-2.46638571c0.41106427-0.13702141 0.68510715-0.27404284 1.09617143-0.41106428 3.56255715-1.50723572 7.12511428-2.87744998 10.82469285-4.52170713l0.8221286-0.4110643c27.67832853-11.78384284 56.31580708-25.48598569 80.84264276-37.81791423H336.61257162c58.64517136 29.4596071 140.58398554 66.45539279 176.75764268 66.45539277h0.54808573c0.82212858 0.41106427 1.64425714 0.41106427 2.32936425 0.41106427z" fill="#ED1C24" p-id="2287"></path><path d="M653.54313557 741.1933686c14.38724998 10.41362856 31.65194995 16.03150712 49.87579994 16.0315071 22.74555713 0 44.2579214-8.90639284 60.28942849-24.93789998 16.16852856-16.16852856 24.93789998-37.54387139 24.93789993-60.28942848 0-18.08682854-5.61787856-35.48854995-16.0315071-49.87579993l-119.07162126 119.07162129zM262.89504316 732.28697572c16.16852856 16.16852856 37.54387139 24.93789998 60.28942848 24.93789998 18.08682854 0 35.48854995-5.61787856 49.87579992-16.0315071l-119.07162127-119.07162129c-23.97874999 33.29620714-20.96427856 80.15753561 8.90639287 110.16522841z" fill="" p-id="2288"></path><path d="M464.72760721 1080.32140393l-14.11320714 24.38981428 12.05788567 11.2357571 13.01703573-35.62557138zM513.3702143 1163.63043238l7.26213567-6.85107142-15.48342139-0.82212859zM548.99578566 1080.32140393l0.27404283 0.41106428-5.06979281 4.52170714-5.20681432 4.52170711-8.22128565-9.59149997h-40.55834282l-8.90639285 24.66385711h66.04432848l14.25022855 13.42809997 14.52427144-13.56512136-14.11320715-24.38981428z" fill="#FBB03B" p-id="2289"></path><path d="M571.8783642 1070.04479679c-1.23319285-2.05532142-3.42553572-3.42553572-5.8919214-3.42553573h-105.09543559c-2.46638573 0-4.65872857 1.23319285-5.89192144 3.42553573l-18.90895713 32.47407851c-1.64425714 2.74042856-1.09617142 6.3029857 1.23319288 8.49532856l71.38816421 67.14049992c1.3702143 1.23319285 3.01447142 1.91830003 4.65872857 1.91830002s3.42553572-0.68510715 4.65872853-1.91830002l71.38816423-67.14049992c2.3293643-2.19234288 2.87744998-5.61787856 1.23319286-8.49532856l-18.77193572-32.47407851z m-121.26396413 34.66642142l14.25022855-24.38981428h10.82469285l-13.01703573 35.62557138-12.05788567-11.2357571z m62.75581423 58.91921417l-8.22128572-7.67320001 15.48342139 0.82212859-7.26213567 6.85107142z m20.8272571-19.86810714l-42.88770709-2.32936426-1.50723571-0.13702143-24.38981428-22.74555713h76.45795706l9.18043572 8.63235001-16.8536357 16.57959281z m27.40428567-25.48598567l-14.25022855-13.42809997h-66.04432848l9.04341428-24.66385711h40.42132139l8.22128565 9.45447853 5.20681432-4.52170713 5.20681427-4.52170711-0.41106429-0.27404285h13.0170357l14.25022853 24.38981428-14.66129282 13.56512136z" fill="#ED1C24" p-id="2290"></path><path d="M512.82212858 1118.55038242H465.41271432l24.25279286 22.88257856 1.50723573 0.1370214 43.02472849 2.19234286 16.8536357-16.57959281-9.18043572-8.63235001z" fill="#FBB03B" p-id="2291"></path><path d="M301.53508597 1318.46464648c0.68510715 30.69279996 7.26213571 76.32093563 39.73621423 87.55669276 20.69023569 7.26213571 38.36599997 7.12511428 53.71239994-0.41106427 14.11320711-6.85107142 23.97874999-18.90895714 30.28173567-28.77449997l-123.73034984-58.37112852zM601.06392845 1376.97279642c3.42553572 5.48085713 8.08426426 11.64682139 13.83916428 17.12767855 18.77193571 17.94980714 41.79153567 21.92342853 70.15497134 12.05788572 32.47407851-11.37277857 39.18812852-56.86389281 39.73621429-87.55669277L601.06392845 1376.97279642z" fill="#00A0EA" p-id="2292"></path></svg>